<svg width="28" height="28" viewBox="0 0 28 28" fill="none" xmlns="http://www.w3.org/2000/svg">
<path d="M23.16 3H3.84C3.37538 3 3 3.37538 3 3.84V23.16C3 23.6246 3.37538 24 3.84 24H23.16C23.6246 24 24 23.6246 24 23.16V3.84C24 3.37538 23.6246 3 23.16 3ZM9.22913 20.8946H6.11325V10.8724H9.22913V20.8946ZM7.6725 9.50213C7.31531 9.50213 6.96614 9.3962 6.66914 9.19776C6.37214 8.99931 6.14067 8.71725 6.00397 8.38725C5.86728 8.05725 5.83152 7.69412 5.9012 7.34379C5.97089 6.99346 6.14289 6.67166 6.39547 6.41909C6.64804 6.16652 6.96984 5.99451 7.32017 5.92483C7.6705 5.85514 8.03362 5.89091 8.36363 6.0276C8.69363 6.16429 8.97569 6.39577 9.17413 6.69277C9.37258 6.98976 9.4785 7.33893 9.4785 7.69613C9.47587 8.69362 8.66738 9.50213 7.6725 9.50213ZM20.8946 20.8946H17.7814V16.02C17.7814 14.8571 17.7604 13.3635 16.1618 13.3635C14.5421 13.3635 14.2928 14.6287 14.2928 15.936V20.8946H11.1821V10.8724H14.1694V12.2426H14.2114C14.6261 11.4551 15.642 10.623 17.1593 10.623C20.3145 10.623 20.8946 12.6994 20.8946 15.3979V20.8946Z" fill="white"/>
</svg>
