<svg width="28" height="28" viewBox="0 0 28 28" fill="none" xmlns="http://www.w3.org/2000/svg">
<path d="M22.25 25H5.75C4.99089 25 4.34277 24.7314 3.80566 24.1943C3.26855 23.6572 3 23.0091 3 22.25V5.75C3 4.99089 3.26855 4.34277 3.80566 3.80566C4.34277 3.26855 4.99089 3 5.75 3H22.25C23.0091 3 23.6572 3.26855 24.1943 3.80566C24.7314 4.34277 25 4.99089 25 5.75V22.25C25 23.0091 24.7314 23.6572 24.1943 24.1943C23.6572 24.7314 23.0091 25 22.25 25ZM14 11.25C13.2409 11.25 12.5928 11.5186 12.0557 12.0557C11.5186 12.5928 11.25 13.2409 11.25 14C11.25 14.7591 11.5186 15.4072 12.0557 15.9443C12.5928 16.4814 13.2409 16.75 14 16.75C14.7591 16.75 15.4072 16.4814 15.9443 15.9443C16.4814 15.4072 16.75 14.7591 16.75 14C16.75 13.2409 16.4814 12.5928 15.9443 12.0557C15.4072 11.5186 14.7591 11.25 14 11.25ZM22.25 6.4375C22.25 6.2513 22.182 6.09017 22.0459 5.9541C21.9098 5.81803 21.7487 5.75 21.5625 5.75H18.8125C18.6263 5.75 18.4652 5.81803 18.3291 5.9541C18.193 6.09017 18.125 6.2513 18.125 6.4375V9.1875C18.125 9.3737 18.193 9.53483 18.3291 9.6709C18.4652 9.80697 18.6263 9.875 18.8125 9.875H21.5625C21.7487 9.875 21.9098 9.80697 22.0459 9.6709C22.182 9.53483 22.25 9.3737 22.25 9.1875V6.4375ZM22.25 13.3125C22.25 13.1263 22.182 12.9652 22.0459 12.8291C21.9098 12.693 21.7487 12.625 21.5625 12.625H20.1875C20.0013 12.625 19.8402 12.693 19.7041 12.8291C19.568 12.9652 19.5 13.1263 19.5 13.3125V14C19.5 15.5182 18.9629 16.8145 17.8887 17.8887C16.8145 18.9629 15.5182 19.5 14 19.5C12.4818 19.5 11.1855 18.9629 10.1113 17.8887C9.03711 16.8145 8.5 15.5182 8.5 14V13.3125C8.5 13.1263 8.43197 12.9652 8.2959 12.8291C8.15983 12.693 7.9987 12.625 7.8125 12.625H6.4375C6.2513 12.625 6.09017 12.693 5.9541 12.8291C5.81803 12.9652 5.75 13.1263 5.75 13.3125V21.5625C5.75 21.7487 5.81803 21.9098 5.9541 22.0459C6.09017 22.182 6.2513 22.25 6.4375 22.25H21.5625C21.7487 22.25 21.9098 22.182 22.0459 22.0459C22.182 21.9098 22.25 21.7487 22.25 21.5625V13.3125Z" fill="white"/>
</svg>
