<svg width="28" height="28" viewBox="0 0 28 28" fill="none" xmlns="http://www.w3.org/2000/svg">
<path d="M23.3333 3.5H4.66667C4.35725 3.5 4.0605 3.62292 3.84171 3.84171C3.62292 4.0605 3.5 4.35725 3.5 4.66667V23.3333C3.5 23.6428 3.62292 23.9395 3.84171 24.1583C4.0605 24.3771 4.35725 24.5 4.66667 24.5H23.3333C23.6428 24.5 23.9395 24.3771 24.1583 24.1583C24.3771 23.9395 24.5 23.6428 24.5 23.3333V4.66667C24.5 4.35725 24.3771 4.0605 24.1583 3.84171C23.9395 3.62292 23.6428 3.5 23.3333 3.5ZM20.9463 8.47583L19.8193 9.555C19.7717 9.59131 19.735 9.64 19.7132 9.69576C19.6914 9.75151 19.6853 9.81219 19.6957 9.87117V17.8057C19.6853 17.8646 19.6914 17.9253 19.7132 17.9811C19.735 18.0368 19.7717 18.0855 19.8193 18.1218L20.9183 19.2022V19.4402H15.3872V19.2022L16.527 18.0962C16.6402 17.9842 16.6402 17.9503 16.6402 17.78V11.3657L13.4715 19.411H13.0422L9.35433 11.3657V16.758C9.33977 16.8701 9.35067 16.9839 9.38622 17.0912C9.42177 17.1985 9.48106 17.2963 9.55967 17.3775L11.0425 19.1753V19.4122H6.83783V19.1753L8.32067 17.3775C8.39871 17.2963 8.45667 17.198 8.4899 17.0905C8.52312 16.9829 8.53069 16.869 8.512 16.758V10.5233C8.52072 10.438 8.50921 10.3518 8.4784 10.2717C8.44759 10.1917 8.39835 10.12 8.33467 10.0625L7.01633 8.47583V8.239H11.1067L14.2683 15.1725L17.0473 8.239H20.9475V8.47583H20.9463Z" fill="white"/>
</svg>
