<svg width="186" height="48" viewBox="0 0 186 48" fill="none" xmlns="http://www.w3.org/2000/svg">
<path fill-rule="evenodd" clip-rule="evenodd" d="M35.9164 2.61776C35.9164 4.06351 34.7469 5.23552 33.3043 5.23552C31.8617 5.23552 30.6922 4.06351 30.6922 2.61776C30.6922 1.17201 31.8617 0 33.3043 0C34.7469 0 35.9164 1.17201 35.9164 2.61776ZM49.63 11.7797C49.63 13.9483 47.8757 15.7063 45.7118 15.7063C45.2936 15.7063 44.8906 15.6406 44.5127 15.519L39.2316 25.7261C40.3875 26.5574 41.1404 27.9158 41.1404 29.4503C41.1404 31.9804 39.0938 34.0314 36.5692 34.0314C34.0446 34.0314 31.998 31.9804 31.998 29.4503C31.998 28.5011 32.2861 27.6193 32.7794 26.8879L26.245 20.0199C25.3673 20.6028 24.3146 20.9423 23.1828 20.9423C21.9966 20.9423 20.8973 20.5694 19.9952 19.9342L12.7738 26.3028C13.3711 27.3221 13.7135 28.5095 13.7135 29.7771C13.7135 33.5722 10.6437 36.6487 6.85677 36.6487C3.06988 36.6487 0 33.5722 0 29.7771C0 25.982 3.06988 22.9055 6.85677 22.9055C8.43507 22.9055 9.88882 23.4399 11.0477 24.338L18.2691 17.9694C17.8623 17.1959 17.6321 16.3147 17.6321 15.3795C17.6321 12.3073 20.1172 9.8168 23.1828 9.8168C26.2484 9.8168 28.7335 12.3073 28.7335 15.3795C28.7335 16.6084 28.3359 17.7442 27.6626 18.6648L34.1975 25.5333C34.889 25.1119 35.7008 24.8693 36.5692 24.8693C37.0959 24.8693 37.6017 24.9585 38.0726 25.1228L43.3537 14.9158C42.4061 14.1991 41.7936 13.0611 41.7936 11.7797C41.7936 9.61106 43.5479 7.85304 45.7118 7.85304C47.8757 7.85304 49.63 9.61106 49.63 11.7797ZM23.509 47.7741C25.6729 47.7741 27.4272 46.0161 27.4272 43.8475C27.4272 41.6789 25.6729 39.9208 23.509 39.9208C21.3451 39.9208 19.5908 41.6789 19.5908 43.8475C19.5908 46.0161 21.3451 47.7741 23.509 47.7741Z" fill="white"/>
<path d="M66.2891 17.7067C68.1755 17.7067 69.6998 18.3114 70.8621 19.5208C72.0244 20.711 72.6056 22.3812 72.6056 24.5313V33.8899H68.6042V25.0784C68.6042 23.8114 68.2898 22.8419 67.661 22.17C67.0322 21.4789 66.1748 21.1334 65.0887 21.1334C63.9836 21.1334 63.1071 21.4789 62.4592 22.17C61.8304 22.8419 61.516 23.8114 61.516 25.0784V33.8899H57.5146V17.9371H61.516V19.924C62.0495 19.2329 62.726 18.6953 63.5453 18.3114C64.3837 17.9083 65.2983 17.7067 66.2891 17.7067Z" fill="white"/>
<path d="M90.4805 25.5679C90.4805 26.1438 90.4424 26.6621 90.3662 27.1229H78.7907C78.886 28.2747 79.2861 29.177 79.9911 29.8297C80.6962 30.4824 81.5631 30.8087 82.592 30.8087C84.0783 30.8087 85.1358 30.1656 85.7646 28.8794H90.0803C89.623 30.4152 88.7466 31.6822 87.4509 32.6804C86.1552 33.6595 84.5642 34.149 82.6778 34.149C81.1535 34.149 79.7816 33.8131 78.5621 33.1412C77.3617 32.4501 76.4185 31.4806 75.7325 30.2328C75.0656 28.985 74.7322 27.5452 74.7322 25.9135C74.7322 24.2625 75.0656 22.8131 75.7325 21.5653C76.3994 20.3175 77.3331 19.3576 78.5335 18.6857C79.7339 18.0138 81.1153 17.6779 82.6778 17.6779C84.1831 17.6779 85.5264 18.0042 86.7078 18.6569C87.9082 19.3096 88.8323 20.2407 89.4801 21.4501C90.147 22.6404 90.4805 24.0129 90.4805 25.5679ZM86.3362 24.4161C86.3171 23.3794 85.9456 22.554 85.2215 21.9397C84.4975 21.3061 83.6114 20.9894 82.5635 20.9894C81.5726 20.9894 80.7343 21.2966 80.0483 21.9109C79.3814 22.506 78.9717 23.341 78.8193 24.4161H86.3362Z" fill="white"/>
<path d="M107.7 17.9371V33.8899H103.67V31.8742C103.155 32.5653 102.479 33.1124 101.64 33.5155C100.821 33.8995 99.9255 34.0914 98.9537 34.0914C97.7152 34.0914 96.6196 33.8323 95.6669 33.314C94.7141 32.7764 93.9615 31.9989 93.4089 30.9815C92.8754 29.9449 92.6087 28.7162 92.6087 27.2957V17.9371H96.61V26.7197C96.61 27.9867 96.9244 28.9658 97.5532 29.6569C98.182 30.3288 99.0394 30.6647 100.126 30.6647C101.231 30.6647 102.098 30.3288 102.726 29.6569C103.355 28.9658 103.67 27.9867 103.67 26.7197V17.9371H107.7Z" fill="white"/>
<path d="M114.999 20.4135C115.514 19.5688 116.181 18.9065 117 18.4266C117.838 17.9467 118.791 17.7067 119.858 17.7067V21.9397H118.801C117.543 21.9397 116.59 22.2372 115.943 22.8323C115.314 23.4274 114.999 24.4641 114.999 25.9423V33.8899H110.998V17.9371H114.999V20.4135Z" fill="white"/>
<path d="M120.875 25.8559C120.875 24.2433 121.189 22.8131 121.818 21.5653C122.466 20.3175 123.333 19.3576 124.419 18.6857C125.524 18.0138 126.753 17.6779 128.106 17.6779C129.287 17.6779 130.316 17.9179 131.193 18.3978C132.088 18.8777 132.803 19.4824 133.336 20.2119V17.9371H137.366V33.8899H133.336V31.5574C132.822 32.3061 132.107 32.93 131.193 33.4291C130.297 33.9091 129.259 34.149 128.077 34.149C126.744 34.149 125.524 33.8035 124.419 33.1124C123.333 32.4213 122.466 31.4518 121.818 30.204C121.189 28.937 120.875 27.4876 120.875 25.8559ZM133.336 25.9135C133.336 24.9344 133.146 24.0993 132.765 23.4082C132.384 22.6979 131.869 22.1604 131.221 21.7957C130.573 21.4117 129.878 21.2198 129.135 21.2198C128.392 21.2198 127.706 21.4021 127.077 21.7669C126.448 22.1316 125.934 22.6691 125.534 23.3794C125.153 24.0705 124.962 24.896 124.962 25.8559C124.962 26.8157 125.153 27.6604 125.534 28.3899C125.934 29.1002 126.448 29.6473 127.077 30.0312C127.725 30.4152 128.411 30.6072 129.135 30.6072C129.878 30.6072 130.573 30.4248 131.221 30.06C131.869 29.6761 132.384 29.1386 132.765 28.4475C133.146 27.7372 133.336 26.8925 133.336 25.9135Z" fill="white"/>
<path d="M144.626 20.2695C145.141 19.5016 145.846 18.8777 146.741 18.3978C147.656 17.9179 148.694 17.6779 149.857 17.6779C151.209 17.6779 152.429 18.0138 153.515 18.6857C154.62 19.3576 155.487 20.3175 156.116 21.5653C156.764 22.7939 157.088 24.2241 157.088 25.8559C157.088 27.4876 156.764 28.937 156.116 30.204C155.487 31.4518 154.62 32.4213 153.515 33.1124C152.429 33.8035 151.209 34.149 149.857 34.149C148.675 34.149 147.637 33.9187 146.741 33.4579C145.865 32.978 145.16 32.3637 144.626 31.615V33.8899H140.625V12.5811H144.626V20.2695ZM153 25.8559C153 24.896 152.8 24.0705 152.4 23.3794C152.019 22.6691 151.505 22.1316 150.857 21.7669C150.228 21.4021 149.542 21.2198 148.799 21.2198C148.075 21.2198 147.389 21.4117 146.741 21.7957C146.112 22.1604 145.598 22.6979 145.198 23.4082C144.817 24.1185 144.626 24.9536 144.626 25.9135C144.626 26.8733 144.817 27.7084 145.198 28.4187C145.598 29.129 146.112 29.6761 146.741 30.06C147.389 30.4248 148.075 30.6072 148.799 30.6072C149.542 30.6072 150.228 30.4152 150.857 30.0312C151.505 29.6473 152.019 29.1002 152.4 28.3899C152.8 27.6796 153 26.8349 153 25.8559Z" fill="white"/>
<path d="M166.377 34.149C164.852 34.149 163.48 33.8131 162.261 33.1412C161.042 32.4501 160.079 31.4806 159.374 30.2328C158.688 28.985 158.345 27.5452 158.345 25.9135C158.345 24.2817 158.698 22.8419 159.403 21.5941C160.127 20.3463 161.108 19.3864 162.347 18.7145C163.585 18.0234 164.967 17.6779 166.491 17.6779C168.015 17.6779 169.397 18.0234 170.635 18.7145C171.874 19.3864 172.846 20.3463 173.551 21.5941C174.275 22.8419 174.637 24.2817 174.637 25.9135C174.637 27.5452 174.265 28.985 173.522 30.2328C172.798 31.4806 171.807 32.4501 170.55 33.1412C169.311 33.8131 167.92 34.149 166.377 34.149ZM166.377 30.636C167.101 30.636 167.777 30.4632 168.406 30.1176C169.054 29.7529 169.568 29.2154 169.949 28.5051C170.33 27.7948 170.521 26.9309 170.521 25.9135C170.521 24.3969 170.121 23.2355 169.321 22.4292C168.539 21.6037 167.577 21.191 166.434 21.191C165.291 21.191 164.328 21.6037 163.547 22.4292C162.785 23.2355 162.404 24.3969 162.404 25.9135C162.404 27.43 162.775 28.6011 163.519 29.4265C164.281 30.2328 165.233 30.636 166.377 30.636Z" fill="white"/>
<path d="M181.581 21.2486V28.9658C181.581 29.5033 181.705 29.8969 181.953 30.1464C182.219 30.3768 182.658 30.492 183.267 30.492H185.125V33.8899H182.61C179.237 33.8899 177.551 32.2389 177.551 28.937V21.2486H175.665V17.9371H177.551V13.992H181.581V17.9371H185.125V21.2486H181.581Z" fill="white"/>
</svg>
